<?xml version="1.0" standalone="no"?>
<!DOCTYPE svg PUBLIC "-//W3C//DTD SVG 20010904//EN"
 "http://www.w3.org/TR/2001/REC-SVG-20010904/DTD/svg10.dtd">
<svg version="1.0" xmlns="http://www.w3.org/2000/svg"
 width="2000.000000pt" height="857.000000pt" viewBox="0 0 2000.000000 857.000000"
 preserveAspectRatio="xMidYMid meet">

<g transform="translate(0.000000,857.000000) scale(0.100000,-0.100000)"
fill="#000000" stroke="none">
<path d="M0 4285 l0 -4285 10000 0 10000 0 0 4285 0 4285 -10000 0 -10000 0 0
-4285z m11075 3576 c913 -51 1787 -162 2460 -313 1045 -233 1727 -563 1895
-913 123 -257 -9 -510 -389 -746 l-91 -57 70 -41 c320 -190 484 -423 450 -636
-32 -202 -246 -417 -590 -592 -945 -482 -2807 -783 -4850 -783 -1485 0 -2887
158 -3924 441 -1151 315 -1688 747 -1471 1185 61 124 220 275 405 385 l70 41
-92 57 c-380 240 -511 490 -388 746 199 414 1122 798 2465 1024 572 97 1340
176 1935 201 140 6 280 12 310 14 126 8 1551 -3 1735 -13z m-5471 -4640 c93
-25 218 -84 293 -139 l53 -39 -68 -72 -67 -72 -50 36 c-103 75 -194 108 -335
121 -298 26 -603 -165 -723 -451 -124 -297 -55 -641 174 -865 80 -79 151 -123
266 -163 80 -29 99 -31 213 -32 103 0 138 4 200 24 81 25 162 63 225 106 l39
27 34 -38 c19 -22 47 -55 63 -76 l29 -36 -39 -31 c-52 -41 -147 -94 -214 -119
-140 -53 -358 -68 -513 -37 -354 73 -637 355 -720 720 -27 118 -25 321 4 438
94 378 378 650 749 717 82 15 298 4 387 -19z m8010 3 c81 -21 171 -65 238
-118 61 -49 143 -149 134 -164 -7 -12 -141 -92 -153 -92 -5 0 -24 20 -42 44
-93 123 -259 181 -448 156 -125 -16 -189 -43 -248 -104 -58 -59 -75 -104 -75
-197 0 -81 23 -131 84 -187 77 -71 172 -105 376 -138 387 -61 575 -239 573
-544 -2 -192 -75 -327 -235 -431 -114 -73 -257 -104 -442 -96 -208 9 -373 75
-497 197 -63 62 -117 145 -104 158 3 4 45 19 93 33 l86 26 26 -36 c89 -122
249 -191 441 -191 203 0 343 72 407 209 19 42 25 70 25 131 0 160 -91 271
-277 336 -22 8 -95 23 -161 34 -225 36 -356 92 -462 196 -175 172 -187 435
-27 613 139 154 443 227 688 165z m1596 0 c128 -32 279 -136 350 -239 l30 -43
-80 -46 c-43 -25 -83 -46 -87 -46 -4 0 -18 15 -30 34 -29 46 -98 100 -164 130
-158 72 -413 48 -528 -50 -58 -50 -83 -104 -89 -189 -6 -91 21 -158 85 -214
79 -70 157 -99 369 -136 293 -51 449 -142 530 -310 70 -144 69 -315 -1 -463
-61 -129 -175 -220 -340 -272 -99 -32 -300 -39 -416 -15 -204 41 -372 150
-460 299 -12 20 -18 40 -15 44 4 3 47 18 95 33 l88 26 34 -46 c42 -57 136
-121 221 -151 80 -28 269 -39 349 -20 226 53 341 228 281 427 -24 79 -68 135
-140 182 -67 43 -144 68 -286 91 -67 11 -145 27 -175 36 -201 58 -349 183
-401 340 -18 54 -22 83 -18 162 3 83 8 107 36 165 73 157 246 261 477 287 85
10 210 3 285 -16z m-8000 -18 c206 -68 326 -201 353 -392 24 -161 -47 -317
-184 -406 l-50 -32 33 -12 c204 -70 310 -220 311 -439 0 -155 -41 -267 -138
-374 -63 -69 -132 -113 -232 -148 l-78 -28 -427 -3 -428 -3 0 931 0 931 393
-3 c344 -4 399 -6 447 -22z m1902 -901 c202 -506 368 -923 368 -928 0 -4 -52
-6 -117 -5 l-116 3 -76 213 -76 212 -450 -2 -449 -3 -53 -145 c-30 -80 -65
-175 -79 -212 l-26 -68 -120 0 c-92 0 -119 3 -115 13 3 6 170 420 370 919 201
499 368 912 372 918 4 7 41 10 103 8 l96 -3 368 -920z m1343 900 c169 -43 303
-150 373 -296 49 -103 64 -171 63 -297 -1 -165 -51 -299 -152 -407 -71 -75
-148 -122 -252 -153 -74 -22 -106 -25 -324 -29 l-243 -6 0 -323 0 -324 -100 0
-100 0 0 925 0 925 338 0 c269 0 350 -3 397 -15z m1780 -877 c197 -491 364
-908 372 -925 l13 -33 -117 0 -118 0 -76 213 -75 212 -451 3 -451 2 -26 -67
c-14 -38 -49 -133 -79 -213 l-53 -145 -117 -3 c-64 -1 -117 0 -117 3 0 3 163
409 361 903 199 493 365 907 370 920 8 21 14 22 107 22 l99 0 358 -892z"/>
<path d="M9620 7629 c-1429 -28 -2701 -196 -3639 -480 -484 -147 -840 -320
-1024 -498 -159 -153 -162 -246 -11 -393 33 -31 73 -67 89 -80 43 -35 200
-130 284 -172 l71 -36 118 46 c988 392 2712 634 4523 634 1808 0 3535 -242
4521 -634 l118 -46 71 36 c308 155 506 344 484 463 -27 147 -279 342 -645 499
-1043 448 -2943 701 -4960 661z"/>
<path d="M9515 6394 c-730 -25 -1083 -49 -1573 -104 -641 -74 -1133 -159
-1612 -280 -264 -67 -594 -170 -583 -181 16 -15 364 -119 578 -172 689 -172
1420 -280 2350 -347 470 -33 776 -43 1355 -43 580 0 886 10 1355 43 957 69
1675 176 2380 355 215 55 520 145 549 163 20 12 -326 118 -639 196 -710 177
-1770 317 -2705 356 -248 11 -1271 20 -1455 14z"/>
<path d="M5284 5641 c-255 -135 -415 -277 -444 -392 -10 -41 -9 -53 9 -93 30
-69 85 -131 184 -208 484 -373 1636 -681 3102 -828 471 -47 810 -66 1422 -82
646 -16 1355 1 1968 47 1447 110 2694 388 3315 739 271 154 416 319 380 433
-38 117 -229 278 -475 400 l-75 37 -47 -18 c-297 -114 -544 -193 -833 -265
-626 -157 -1449 -282 -2285 -346 -788 -60 -2162 -60 -2950 0 -1234 95 -2343
306 -3037 580 -62 25 -120 45 -128 45 -8 0 -56 -22 -106 -49z"/>
<path d="M6580 2741 l0 -291 223 0 c122 0 255 5 294 10 170 22 265 123 267
285 1 93 -22 153 -80 204 -80 70 -103 74 -421 79 l-283 3 0 -290z"/>
<path d="M6580 1915 l0 -346 313 3 c298 3 315 4 368 26 76 30 142 90 175 159
37 75 45 195 18 280 -24 78 -104 160 -189 194 -58 22 -71 23 -372 27 l-313 4
0 -347z"/>
<path d="M8459 2432 l-185 -447 182 -3 c101 -1 268 -1 373 0 l190 3 -180 440
c-99 242 -183 443 -187 447 -4 4 -91 -194 -193 -440z"/>
<path d="M9920 2626 l0 -406 228 0 c254 0 296 8 387 70 202 139 217 467 30
639 -96 87 -130 95 -407 99 l-238 3 0 -405z"/>
<path d="M11763 2844 c-121 -286 -354 -856 -351 -860 3 -2 171 -3 375 -2 l369
3 -182 445 c-101 245 -185 449 -187 454 -2 5 -13 -13 -24 -40z"/>
</g>
</svg>
